<svg width="41" height="41" viewBox="0 0 41 41" fill="none" xmlns="http://www.w3.org/2000/svg">
<rect width="41" height="41" fill="#07116C"/>
<g id="&#209;&#129;&#208;&#176;&#208;&#185;&#209;&#130;" clip-path="url(#clip0_0_1)">
<rect width="1920" height="1952.27" transform="translate(-903 -1788.27)" fill="white"/>
<g id="Site template" clip-path="url(#clip1_0_1)">
<rect width="1920" height="1952.27" transform="translate(-903 -1788.27)" fill="white"/>
<g id="Footer">
<rect width="1932.91" height="503.395" transform="translate(-915.908 -339.395)" fill="#1E2E3D"/>
<g id="VK Logo 1" clip-path="url(#clip2_0_1)">
<g id="Clip path group">
<mask id="mask0_0_1" style="mask-type:luminance" maskUnits="userSpaceOnUse" x="0" y="0" width="41" height="41">
<g id="clip0_2_40">
<path id="Vector" d="M40.3531 0.60437H0.749172V40.6044H40.3531V0.60437Z" fill="white"/>
</g>
</mask>
<g mask="url(#mask0_0_1)">
<g id="Group">
<path id="Vector_2" d="M0.749172 19.8044C0.749172 10.7534 0.749172 6.22793 3.53311 3.41615C6.31705 0.60437 10.7977 0.60437 19.7591 0.60437H21.3432C30.3046 0.60437 34.7853 0.60437 37.5692 3.41615C40.3531 6.22793 40.3531 10.7534 40.3531 19.8044V21.4044C40.3531 30.4553 40.3531 34.9808 37.5692 37.7926C34.7853 40.6044 30.3046 40.6044 21.3432 40.6044H19.7591C10.7977 40.6044 6.31705 40.6044 3.53311 37.7926C0.749172 34.9808 0.749172 30.4553 0.749172 21.4044V19.8044Z" fill="#1E2E3D"/>
<path id="Vector_3" d="M21.9385 29.2544C12.9121 29.2544 7.7636 23.0044 7.54907 12.6044H12.0705C12.219 20.2377 15.5523 23.471 18.1926 24.1377V12.6044H22.4501V19.1876C25.0574 18.9043 27.7963 15.9044 28.7204 12.6044H32.978C32.2684 16.671 29.2981 19.671 27.1859 20.9043C29.2981 21.9043 32.6811 24.521 33.9682 29.2544H29.2816C28.275 26.0877 25.767 23.6377 22.4501 23.3043V29.2544H21.9385Z" fill="white"/>
</g>
</g>
</g>
</g>
</g>
</g>
</g>
<defs>
<clipPath id="clip0_0_1">
<rect width="1920" height="1952.27" fill="white" transform="translate(-903 -1788.27)"/>
</clipPath>
<clipPath id="clip1_0_1">
<rect width="1920" height="1952.27" fill="white" transform="translate(-903 -1788.27)"/>
</clipPath>
<clipPath id="clip2_0_1">
<rect width="40" height="40" fill="white" transform="translate(0.553223 0.603943)"/>
</clipPath>
</defs>
</svg>
